<svg width="32" height="32" viewBox="0 0 32 32" fill="none" xmlns="http://www.w3.org/2000/svg">
<g clip-path="url(#clip0_75_253)">
<circle cx="16" cy="16" r="16" fill="#F22424"/>
<path d="M16.456 15.92H24.744V25.76C23.5493 26.6347 22.2747 27.2693 20.92 27.664C19.576 28.0587 18.168 28.256 16.696 28.256C14.776 28.256 13.0267 27.9573 11.448 27.36C9.88 26.752 8.536 25.92 7.416 24.864C6.296 23.7973 5.432 22.5387 4.824 21.088C4.216 19.6267 3.912 18.0427 3.912 16.336C3.912 14.5973 4.2 13.0027 4.776 11.552C5.352 10.0907 6.17333 8.832 7.24 7.776C8.31733 6.72 9.61333 5.89867 11.128 5.312C12.6533 4.72533 14.3547 4.432 16.232 4.432C17.2027 4.432 18.1147 4.512 18.968 4.672C19.8213 4.832 20.6053 5.05067 21.32 5.328C22.0453 5.60533 22.7067 5.936 23.304 6.32C23.9013 6.704 24.4347 7.12 24.904 7.568L23.336 9.952C23.0907 10.3253 22.7707 10.5547 22.376 10.64C21.992 10.7253 21.576 10.6293 21.128 10.352C20.7013 10.096 20.296 9.87733 19.912 9.696C19.5387 9.504 19.1547 9.34933 18.76 9.232C18.3653 9.11467 17.9493 9.02933 17.512 8.976C17.0747 8.92267 16.584 8.896 16.04 8.896C15.0267 8.896 14.1147 9.07733 13.304 9.44C12.4933 9.792 11.8 10.2933 11.224 10.944C10.6587 11.5947 10.2213 12.3787 9.912 13.296C9.60267 14.2027 9.448 15.216 9.448 16.336C9.448 17.5733 9.61867 18.672 9.96 19.632C10.3013 20.592 10.7813 21.4027 11.4 22.064C12.0293 22.7253 12.776 23.232 13.64 23.584C14.5147 23.9253 15.48 24.096 16.536 24.096C17.1867 24.096 17.7733 24.032 18.296 23.904C18.8293 23.776 19.3467 23.6053 19.848 23.392V19.856H17.544C17.2027 19.856 16.936 19.7653 16.744 19.584C16.552 19.4027 16.456 19.1733 16.456 18.896V15.92Z" fill="white"/>
</g>
<defs>
<clipPath id="clip0_75_253">
<rect width="32" height="32" fill="white"/>
</clipPath>
</defs>
</svg>
